<svg xmlns="http://www.w3.org/2000/svg" style="display:none">
  <symbol id="icon-facebook" viewBox="0 0 24 24">
    <path d="M22 12a10 10 0 1 0-11.56 9.88v-6.99H7.9V12h2.54V9.8c0-2.5 1.49-3.89 3.77-3.89 1.09 0 2.23.19 2.23.19v2.46h-1.26c-1.24 0-1.63.77-1.63 1.56V12h2.78l-.44 2.89h-2.34v6.99A10 10 0 0 0 22 12Z"/>
  </symbol>
  <symbol id="icon-instagram" viewBox="0 0 24 24">
    <path d="M7.75 2h8.5A5.75 5.75 0 0 1 22 7.75v8.5A5.75 5.75 0 0 1 16.25 22h-8.5A5.75 5.75 0 0 1 2 16.25v-8.5A5.75 5.75 0 0 1 7.75 2Zm8.5 1.8h-8.5A3.95 3.95 0 0 0 3.8 7.75v8.5a3.95 3.95 0 0 0 3.95 3.95h8.5a3.95 3.95 0 0 0 3.95-3.95v-8.5a3.95 3.95 0 0 0-3.95-3.95ZM12 7a5 5 0 1 1 0 10 5 5 0 0 1 0-10Zm0 1.8a3.2 3.2 0 1 0 0 6.4 3.2 3.2 0 0 0 0-6.4Zm5.25-2.15a1.2 1.2 0 1 1 0 2.4 1.2 1.2 0 0 1 0-2.4Z"/>
  </symbol>
  <symbol id="icon-tiktok" viewBox="0 0 24 24">
    <path d="M14.5 3h2.4c.2 1.6 1.4 2.8 3.1 2.9v2.4a6 6 0 0 1-3.1-.9v6a5.4 5.4 0 1 1-5.4-5.4c.3 0 .6 0 .9.1v2.5a2.9 2.9 0 0 0-.9-.1 2.9 2.9 0 1 0 2.9 2.9V3Z"/>
  </symbol>
  <symbol id="icon-linkedin" viewBox="0 0 24 24">
    <path d="M6.5 8.8H3.7V20h2.8V8.8ZM5.1 7.6A1.6 1.6 0 1 0 5.1 4.4a1.6 1.6 0 0 0 0 3.2ZM20.3 13.6c0-3.3-1.8-4.8-4.2-4.8-1.9 0-2.8 1.1-3.3 1.8V8.8H10V20h2.8v-5.5c0-1.5.3-2.9 2.1-2.9 1.8 0 1.9 1.6 1.9 3V20h2.8v-6.4Z"/>
  </symbol>
  <symbol id="icon-x" viewBox="0 0 24 24">
    <path d="M18.2 3h2.9l-6.3 7.2L22.2 21h-5.8l-4.6-6.2L6.4 21H3.5l6.8-7.8L2 3h6l4.2 5.6L18.2 3Zm-1 16.2h1.6L7.2 4.7H5.5l11.7 14.5Z"/>
  </symbol>
  <symbol id="icon-youtube" viewBox="0 0 24 24">
    <path d="M21.6 7.2a2.8 2.8 0 0 0-2-2C17.8 4.7 12 4.7 12 4.7s-5.8 0-7.6.5a2.8 2.8 0 0 0-2 2A29 29 0 0 0 2 12a29 29 0 0 0 .4 4.8 2.8 2.8 0 0 0 2 2c1.8.5 7.6.5 7.6.5s5.8 0 7.6-.5a2.8 2.8 0 0 0 2-2A29 29 0 0 0 22 12a29 29 0 0 0-.4-4.8ZM10 15.5V8.5l6 3.5-6 3.5Z"/>
  </symbol>
</svg>
